# Blender v2.79 (sub 0) OBJ File: ''
# www.blender.org
o Cube
v -2.203306 1.589148 -0.236108
v -2.203306 1.589148 0.236108
v -2.460253 1.860377 0.247736
v -2.460253 1.860377 -0.224479
v 2.203306 1.589148 -0.236108
v 2.203306 1.589148 0.236108
v 2.460253 1.860377 0.247736
v 2.460253 1.860377 -0.224479
v 0.000000 1.860377 -0.224479
v 0.000000 1.860377 0.247736
v 0.000000 1.589148 0.236108
v 0.000000 1.589148 -0.236108
v -2.203306 -1.589148 -0.236108
v -2.203306 -1.589148 0.236108
v -2.460253 -1.860377 0.247736
v -2.460253 -1.860377 -0.224479
v -2.452848 0.000000 -0.236108
v -2.452848 0.000000 0.236108
v -2.203306 0.000000 0.236108
v -2.203306 0.000000 -0.236108
v 2.203306 -1.589148 -0.236108
v 2.203306 -1.589148 0.236108
v 2.460253 -1.860377 0.247736
v 2.460253 -1.860377 -0.224479
v 0.000000 -1.860377 -0.224479
v 0.000000 -1.860377 0.247736
v 0.000000 -1.589148 0.236108
v 0.000000 -1.589148 -0.236108
v 2.452848 0.000000 -0.236108
v 2.452848 0.000000 0.236108
v 2.203306 0.000000 0.236108
v 2.203306 0.000000 -0.236108
vt 0.263158 0.500000
vt 0.526316 0.333333
vt 0.526316 0.500000
vt 0.881579 0.666667
vt 1.000000 1.000000
vt 0.881579 1.000000
vt 0.250000 0.983333
vt 0.131579 1.000000
vt 0.131579 0.983333
vt 0.776316 0.316667
vt 0.657895 0.333333
vt 0.657895 0.316667
vt 0.263158 0.833333
vt 0.263158 1.000000
vt 0.500000 1.000000
vt 0.381579 0.666667
vt 0.500000 0.666667
vt 0.000000 0.666667
vt 0.263158 0.500000
vt 0.263158 0.666667
vt 0.789474 0.166667
vt 0.789474 0.333333
vt 0.526316 0.333333
vt 0.263158 0.500000
vt 0.526316 0.500000
vt 0.881579 1.000000
vt 1.000000 0.666667
vt 0.881579 0.666667
vt 0.131579 1.000000
vt 0.250000 0.983333
vt 0.131579 0.983333
vt 0.776316 0.316667
vt 0.250000 0.833333
vt 0.500000 1.000000
vt 0.500000 0.666667
vt 0.000000 0.666667
vt 0.263158 0.666667
vt 0.789474 0.166667
vt 0.776316 0.166667
vt 0.526316 0.333333
vt 1.000000 0.666667
vt 0.250000 0.983333
vt 0.657895 0.333333
vt 0.776316 0.316667
vt 0.657895 0.316667
vt 0.263158 0.833333
vt 0.250000 0.833333
vt 0.381579 0.666667
vt 0.500000 1.000000
vt 0.500000 0.666667
vt 0.263158 0.500000
vt 0.000000 0.666667
vt 0.263158 0.666667
vt 0.776316 0.166667
vt 0.526316 0.333333
vt 1.000000 1.000000
vt 0.250000 0.983333
vt 0.776316 0.316667
vt 0.263158 1.000000
vt 0.500000 1.000000
vt 0.500000 0.666667
vt 0.000000 0.666667
vt 0.263158 0.666667
vt 0.789474 0.333333
vt 0.263158 0.333333
vt 1.000000 0.666667
vt 0.381579 1.000000
vt 0.000000 0.500000
vt 0.263158 0.333333
vt 1.000000 1.000000
vt 0.263158 1.000000
vt 0.789474 0.333333
vt 0.263158 0.333333
vt 1.000000 1.000000
vt 0.263158 1.000000
vt 0.789474 0.333333
vt 0.381579 1.000000
vt 0.000000 0.500000
vt 0.263158 0.333333
vt 1.000000 0.666667
vn -1.0000 -0.0040 0.0000
vn 1.0000 0.0000 0.0000
vn 0.0000 -0.0000 1.0000
vn 0.0000 0.0428 -0.9991
vn 0.0000 -0.0428 0.9991
vn 0.0000 -1.0000 0.0000
vn 0.0000 1.0000 0.0000
vn -0.0388 0.0061 -0.9992
vn 1.0000 -0.0040 0.0000
vn -1.0000 0.0000 0.0000
vn 0.0000 0.0000 -1.0000
vn -1.0000 0.0040 0.0000
vn 0.0000 -0.0428 -0.9991
vn 0.0000 0.0428 0.9991
vn 1.0000 0.0040 0.0000
vn 0.0388 -0.0061 -0.9992
vn 0.0388 -0.0061 0.9992
vn -0.0388 -0.0061 0.9992
vn 0.0388 0.0061 -0.9992
vn 0.0388 0.0061 0.9992
vn -0.0388 -0.0061 -0.9992
vn -0.0388 0.0061 0.9992
s off
f 18/1/1 4/2/1 17/3/1
f 20/4/2 2/5/2 19/6/2
f 2/7/3 18/8/3 19/9/3
f 1/10/4 9/11/4 12/12/4
f 2/7/5 10/13/5 3/14/5
f 1/15/6 11/16/6 2/17/6
f 3/18/7 9/19/7 4/20/7
f 1/10/8 17/21/8 4/22/8
f 8/23/9 30/24/9 29/25/9
f 31/26/10 5/27/10 32/28/10
f 30/29/3 6/30/3 31/31/3
f 9/11/4 5/32/4 12/12/4
f 6/30/5 10/13/5 11/33/5
f 11/16/6 5/34/6 6/35/6
f 9/19/7 7/36/7 8/37/7
f 5/32/11 29/38/11 32/39/11
f 16/40/12 18/1/12 17/3/12
f 19/6/2 13/41/2 20/4/2
f 18/8/3 14/42/3 19/9/3
f 25/43/13 13/44/13 28/45/13
f 14/42/14 26/46/14 27/47/14
f 27/48/7 13/49/7 14/50/7
f 25/51/6 15/52/6 16/53/6
f 13/44/11 17/21/11 20/54/11
f 30/24/15 24/55/15 29/25/15
f 32/28/10 22/56/10 31/26/10
f 22/57/3 30/29/3 31/31/3
f 21/58/13 25/43/13 28/45/13
f 22/57/14 26/46/14 23/59/14
f 21/60/7 27/48/7 22/61/7
f 23/62/6 25/51/6 24/63/6
f 21/58/16 29/38/16 24/64/16
f 18/1/1 3/65/1 4/2/1
f 20/4/2 1/66/2 2/5/2
f 2/7/17 3/14/17 18/8/17
f 1/10/4 4/22/4 9/11/4
f 2/7/5 11/33/5 10/13/5
f 1/15/6 12/67/6 11/16/6
f 3/18/7 10/68/7 9/19/7
f 1/10/11 20/54/11 17/21/11
f 8/23/9 7/69/9 30/24/9
f 31/26/10 6/70/10 5/27/10
f 30/29/18 7/71/18 6/30/18
f 9/11/4 8/72/4 5/32/4
f 6/30/5 7/71/5 10/13/5
f 11/16/6 12/67/6 5/34/6
f 9/19/7 10/68/7 7/36/7
f 5/32/19 8/72/19 29/38/19
f 16/40/12 15/73/12 18/1/12
f 19/6/2 14/74/2 13/41/2
f 18/8/20 15/75/20 14/42/20
f 25/43/13 16/76/13 13/44/13
f 14/42/14 15/75/14 26/46/14
f 27/48/7 28/77/7 13/49/7
f 25/51/6 26/78/6 15/52/6
f 13/44/21 16/76/21 17/21/21
f 30/24/15 23/79/15 24/55/15
f 32/28/10 21/80/10 22/56/10
f 22/57/22 23/59/22 30/29/22
f 21/58/13 24/64/13 25/43/13
f 22/57/14 27/47/14 26/46/14
f 21/60/7 28/77/7 27/48/7
f 23/62/6 26/78/6 25/51/6
f 21/58/11 32/39/11 29/38/11
